<svg width="714" height="486" viewBox="0 0 714 486" fill="none" xmlns="http://www.w3.org/2000/svg">
<rect width="714" height="486" fill="#CACACA"/>
<path d="M237.111 396C227.731 396 219.703 392.663 213.029 385.988C206.354 379.314 203.011 371.281 203 361.889V123.111C203 113.731 206.343 105.703 213.029 99.0287C219.714 92.3543 227.742 89.0114 237.111 89H475.889C485.269 89 493.303 92.3429 499.988 99.0287C506.674 105.714 510.011 113.742 510 123.111V361.889C510 371.269 506.663 379.303 499.988 385.988C493.314 392.674 485.281 396.011 475.889 396H237.111ZM254.167 327.778H458.833L394.875 242.5L343.708 310.722L305.333 259.556L254.167 327.778Z" fill="white"/>
</svg>
